<svg xmlns="http://www.w3.org/2000/svg" width="41.258" height="32.795" viewBox="0 0 41.258 32.795">
  <path id="mail-svgrepo-com_2_" data-name="mail-svgrepo-com (2)" d="M39.806,37.045H5.953a3.707,3.707,0,0,1-3.7-3.7V7.953a1.783,1.783,0,0,1,.622-1.407A1.587,1.587,0,0,1,4.559,4.873,1.672,1.672,0,0,1,5.953,4.25H39.806a3.679,3.679,0,0,1,2.618,1.084h0a3.678,3.678,0,0,1,1.084,2.618v25.39A3.707,3.707,0,0,1,39.806,37.045ZM5.424,9.668V33.342a.53.53,0,0,0,.529.529H39.806a.53.53,0,0,0,.529-.529V9.668L26.993,23.009a5.818,5.818,0,0,1-8.229,0ZM8.944,8.7,21.009,20.765a2.644,2.644,0,0,0,3.74,0l12.68-12.68C27,8.2,15.175,8.385,8.944,8.7Z" transform="translate(-2.25 -4.25)" fill="#1c242f"/>
</svg>
