<svg id="instagram-svgrepo-com_1_" data-name="instagram-svgrepo-com (1)" xmlns="http://www.w3.org/2000/svg" width="39.437" height="39.437" viewBox="0 0 39.437 39.437">
  <path id="Caminho_1" data-name="Caminho 1" d="M43.718,63.437c-3.9,0-6.725,0-9-.22a11.7,11.7,0,0,1-5.338-1.543,11.571,11.571,0,0,1-3.62-3.62,11.7,11.7,0,0,1-1.542-5.338c-.22-2.273-.22-5.094-.22-9s0-6.725.22-9a11.7,11.7,0,0,1,1.542-5.338,11.571,11.571,0,0,1,3.62-3.62,11.7,11.7,0,0,1,5.338-1.542c2.273-.22,5.094-.22,9-.22s6.725,0,9,.22a11.7,11.7,0,0,1,5.338,1.542,11.571,11.571,0,0,1,3.62,3.62,11.7,11.7,0,0,1,1.543,5.338c.22,2.273.22,5.094.22,9s0,6.725-.22,9a11.7,11.7,0,0,1-1.543,5.338,11.571,11.571,0,0,1-3.62,3.62,11.7,11.7,0,0,1-5.338,1.543c-2.273.22-5.094.22-9,.22Zm0-36.151c-3.812,0-6.566,0-8.681.205a8.762,8.762,0,0,0-3.907,1.054,8.265,8.265,0,0,0-2.586,2.586,8.762,8.762,0,0,0-1.054,3.906c-.205,2.115-.205,4.869-.205,8.681s0,6.566.205,8.681a8.762,8.762,0,0,0,1.054,3.907,8.265,8.265,0,0,0,2.586,2.585,8.763,8.763,0,0,0,3.906,1.054c2.115.205,4.869.205,8.681.205s6.566,0,8.681-.205a8.763,8.763,0,0,0,3.906-1.054,8.265,8.265,0,0,0,2.586-2.586A8.763,8.763,0,0,0,59.945,52.4c.205-2.115.205-4.869.205-8.681s0-6.566-.205-8.681a8.763,8.763,0,0,0-1.054-3.906,8.265,8.265,0,0,0-2.586-2.586A8.762,8.762,0,0,0,52.4,27.492C50.284,27.286,47.53,27.286,43.718,27.286Z" transform="translate(-24 -24)" fill="#1c242f"/>
  <path id="Elipse_1" data-name="Elipse 1" d="M3.859-6A9.859,9.859,0,1,1-6,3.859,9.87,9.87,0,0,1,3.859-6Zm0,16.432A6.573,6.573,0,1,0-2.714,3.859,6.58,6.58,0,0,0,3.859,10.432Z" transform="translate(15.859 15.859)" fill="#1c242f"/>
  <ellipse id="Elipse_2" data-name="Elipse 2" cx="2.399" cy="2.571" rx="2.399" ry="2.571" transform="translate(28.106 6.382)" fill="#1c242f"/>
</svg>
