<svg xmlns="http://www.w3.org/2000/svg" width="50.46" height="32.795" viewBox="0 0 50.46 32.795">
  <g id="Page-1" transform="translate(0 0)">
    <g id="Dribbble-Light-Preview">
      <g id="icons">
        <path id="behance-_163_" data-name="behance-[#163]" d="M76.747,7327.34H89.583v-3.675H76.747Zm6.327,7.382a4.992,4.992,0,0,0-5.247,5.052H88.1c-.7-3.891-2.424-5.052-5.025-5.052Zm.4,15.2c2.644,0,4.584-1.67,4.98-3.075h5.56c-1.589,5.088-4.871,7.945-10.764,7.945-7.52,0-11.741-5.349-11.741-12.446,0-16.714,24.117-17.313,22.906,1.56H77.827c.161,3.833,1.743,6.016,5.648,6.016Zm-25.02-.735c3.035,0,5.159-1.167,5.159-4.318,0-3.266-1.877-4.684-5.028-4.684h-7.6v9Zm-.4-13.915c2.525,0,4.268-1.175,4.268-3.906,0-2.876-2.028-3.764-4.8-3.764H50.983v7.67ZM58.944,7322c5.981,0,10.139,1.976,10.139,8.129a7.012,7.012,0,0,1-4.314,6.845c3.956,1.175,5.827,4.259,5.827,8.313,0,6.436-5.1,9.508-11.208,9.508H44V7322Z" transform="translate(-44 -7322)" fill="#1c242f" fill-rule="evenodd"/>
      </g>
    </g>
  </g>
</svg>
