<svg id="_7935ec95c421cee6d86eb22ecd125aef" data-name="7935ec95c421cee6d86eb22ecd125aef" xmlns="http://www.w3.org/2000/svg" width="41.258" height="39.437" viewBox="0 0 41.258 39.437">
  <path id="Caminho_4" data-name="Caminho 4" d="M9.866,51.217V24.608H1.023V51.217H9.866ZM5.445,20.976c3.083,0,5-2.045,5-4.6A4.6,4.6,0,0,0,5.5,11.78c-3.026,0-5,1.987-5,4.6a4.58,4.58,0,0,0,4.887,4.6h.058Zm9.315,30.241s.116-24.113,0-26.609h8.845v3.859h-.059a8.809,8.809,0,0,1,8.029-4.484c5.82,0,10.183,3.8,10.183,11.977V51.217H32.915V36.982c0-3.577-1.28-6.018-4.481-6.018A4.841,4.841,0,0,0,23.9,34.2a6.038,6.038,0,0,0-.291,2.157v14.86Z" transform="translate(-0.5 -11.78)" fill="#1c242f" fill-rule="evenodd"/>
</svg>
