<svg xmlns="http://www.w3.org/2000/svg" width="39.437" height="39.44" viewBox="0 0 39.437 39.44">
  <path id="linkedin-svgrepo-com_2_" data-name="linkedin-svgrepo-com (2)" d="M40.281,4H7.377A3.229,3.229,0,0,0,4,7.083V40.061a3.476,3.476,0,0,0,3.377,3.377h32.9a3.3,3.3,0,0,0,3.155-3.377V7.083A3.032,3.032,0,0,0,40.281,4ZM16.324,36.882H10.581V19.308h5.743ZM13.588,16.646a2.908,2.908,0,0,1-3.007-3.032,2.908,2.908,0,0,1,3.056-3.032,2.908,2.908,0,0,1,3.007,3.032,2.908,2.908,0,0,1-3.056,3.032ZM36.88,36.882H31.112V27.269c0-2.292-.813-3.87-2.859-3.87a3.081,3.081,0,0,0-2.884,2.07,3.527,3.527,0,0,0-.2,1.4V36.882H19.5V19.308h5.669v2.465a5.717,5.717,0,0,1,5.176-2.982c3.722,0,6.532,2.465,6.532,7.715Z" transform="translate(-4 -3.999)" fill="#1c242f"/>
</svg>
