<svg id="whatsapp-svgrepo-com_1_" data-name="whatsapp-svgrepo-com (1)" xmlns="http://www.w3.org/2000/svg" width="39.051" height="39.317" viewBox="0 0 39.051 39.317">
  <path id="Caminho_5" data-name="Caminho 5" d="M23.043,17.631c-.5-.236-2.883-1.415-3.329-1.6s-.76-.236-1.1.262-1.258,1.573-1.546,1.913-.55.367-1.048,0A13.446,13.446,0,0,1,12.114,15.8a13.761,13.761,0,0,1-2.621-3.381c-.288-.472,0-.734.21-1s.472-.55.734-.839a3.643,3.643,0,0,0,.472-.813,1,1,0,0,0,0-.865c0-.236-1.1-2.621-1.52-3.591S8.6,4.474,8.313,4.474H7.265a1.887,1.887,0,0,0-1.311.6,5.5,5.5,0,0,0-1.7,4.063A9.41,9.41,0,0,0,6.216,14.25a21.807,21.807,0,0,0,8.361,7.339c1.153.5,2.044.786,2.752,1.022a6.631,6.631,0,0,0,3.067.183,5.059,5.059,0,0,0,3.3-2.307,4.377,4.377,0,0,0,.288-2.307A2.72,2.72,0,0,0,23.043,17.631Z" transform="translate(5.343 5.933)" fill="#1c242f"/>
  <path id="Caminho_6" data-name="Caminho 6" d="M33.878,6.214A19.291,19.291,0,0,0,20.012.5a19.5,19.5,0,0,0-16.8,29.225L.59,39.816,10.917,37.2a19.4,19.4,0,0,0,9.3,2.359h-.21A19.5,19.5,0,0,0,33.878,6.214ZM20.012,36.2a16.041,16.041,0,0,1-8.256-2.28l-.577-.341-6.133,1.6L6.671,29.2,6.3,28.6a16.185,16.185,0,1,1,13.708,7.6Z" transform="translate(-0.59 -0.5)" fill="#1c242f"/>
</svg>
