<?xml version="1.0" encoding="UTF-8"?> <svg xmlns="http://www.w3.org/2000/svg" xmlns:xlink="http://www.w3.org/1999/xlink" version="1.1" id="Layer_1" x="0px" y="0px" viewBox="0 0 300 50" style="enable-background:new 0 0 300 50;" xml:space="preserve"> <style type="text/css"> .st0{fill:#8F9DA8;} </style> <g> <g> <polygon class="st0" points="23.8,37.3 36.2,37.3 36.2,34.2 36.2,23.4 33.1,23.4 33.1,34.2 23.8,34.2 "></polygon> <polygon class="st0" points="20.7,18.7 17.6,18.7 17.6,37.3 20.7,37.3 20.7,26.5 26.9,26.5 26.9,31.1 30,31.1 30,12.5 26.9,12.5 26.9,23.4 20.7,23.4 "></polygon> <polygon class="st0" points="14.5,15.6 23.8,15.6 23.8,12.5 14.5,12.5 11.4,12.5 11.4,26.5 14.5,26.5 "></polygon> <rect x="33.1" y="12.5" class="st0" width="3.1" height="3.1"></rect> <rect x="11.4" y="34.2" class="st0" width="3.1" height="3.1"></rect> <path class="st0" d="M39.3,6.3h-31H6.8H5.2v34.1V42v1.5h34.1h3.1v-3.1V6.3H39.3z M39.3,40.4h-31v-31h31V40.4z"></path> </g> <g> <path class="st0" d="M79.4,32.1v-5.9h-6.6v5.9h-3v-14h3v5.5h6.6v-5.5h3v14H79.4z"></path> <path class="st0" d="M91.4,32.1v-14h9.9v2.6h-6.9v2.9h6.8v2.6h-6.8v3.2h6.9V32L91.4,32.1L91.4,32.1z"></path> <path class="st0" d="M119.7,32.1L113,23v9.1h-3v-14h3.1l6.5,8.8v-8.8h3v14H119.7z"></path> <path class="st0" d="M139.6,32.1l-2.8-5h-2.2v5h-3v-14h6.6c2.9,0,4.7,1.9,4.7,4.5c0,2.5-1.6,3.8-3.1,4.2l3.2,5.3H139.6L139.6,32.1 z M139.8,22.6c0-1.2-0.9-1.9-2.1-1.9h-3.2v3.8h3.2C138.9,24.5,139.8,23.8,139.8,22.6z"></path> <path class="st0" d="M155,32.1v-5.7l-5.4-8.3h3.4l3.5,5.6l3.5-5.6h3.4l-5.4,8.3v5.7H155z"></path> <path class="st0" d="M181.7,30.1l1.6-2.3c1,1,2.5,1.9,4.5,1.9c1.7,0,2.4-0.7,2.4-1.6c0-2.4-8.1-0.7-8.1-6c0-2.3,2-4.3,5.3-4.3 c2.2,0,4.1,0.7,5.5,2l-1.7,2.2c-1.1-1.1-2.6-1.5-4.1-1.5c-1.3,0-2,0.5-2,1.4c0,2.2,8.1,0.7,8.1,5.9c0,2.6-1.9,4.5-5.6,4.5 C184.9,32.4,183,31.5,181.7,30.1z"></path> <path class="st0" d="M201.1,32.1v-2.4l6.6-9h-6.6v-2.6h10.5v2.4l-6.6,9h6.8v2.6H201.1z"></path> <path class="st0" d="M230,32.1l-0.9-2.4h-6l-0.9,2.4h-3.4l5.4-14h3.7l5.4,14H230z M226.1,21.1l-2.2,6h4.4L226.1,21.1z"></path> <path class="st0" d="M253.2,32.1V22l-4,10.1h-1.3L244,22v10.1h-3v-14h4.2l3.4,8.8l3.4-8.8h4.2v14H253.2z"></path> <path class="st0" d="M265.3,32.1v-14h9.9v2.6h-6.9v2.9h6.8v2.6h-6.8v3.2h6.9V32L265.3,32.1L265.3,32.1z"></path> <path class="st0" d="M282.9,30.1l1.6-2.3c1,1,2.5,1.9,4.5,1.9c1.7,0,2.4-0.7,2.4-1.6c0-2.4-8.1-0.7-8.1-6c0-2.3,2-4.3,5.3-4.3 c2.2,0,4.1,0.7,5.5,2l-1.7,2.2c-1.1-1.1-2.6-1.5-4.1-1.5c-1.3,0-2,0.5-2,1.4c0,2.2,8.1,0.7,8.1,5.9c0,2.6-1.9,4.5-5.6,4.5 C286.1,32.4,284.2,31.5,282.9,30.1z"></path> </g> </g> </svg> 